<mxfile host="app.diagrams.net" agent="Mozilla/5.0 (Windows NT 10.0; Win64; x64) AppleWebKit/537.36 (KHTML, like Gecko) Chrome/140.0.0.0 Safari/537.36" version="28.2.3">
  <diagram name="Page-1" id="yOuBaC5RNr-xnTtxla64">
    <mxGraphModel dx="1901" dy="1151" grid="1" gridSize="12" guides="1" tooltips="1" connect="1" arrows="1" fold="1" page="1" pageScale="1" pageWidth="1654" pageHeight="2336" math="0" shadow="0">
      <root>
        <mxCell id="0" />
        <mxCell id="1" parent="0" />
        <mxCell id="4wg2w4Cgz4jpUNH0m-25-1" value="Cuisine" style="rounded=0;whiteSpace=wrap;html=1;fontSize=17;strokeWidth=2;" parent="1" vertex="1">
          <mxGeometry x="805" y="220" width="110" height="50" as="geometry" />
        </mxCell>
        <mxCell id="4wg2w4Cgz4jpUNH0m-25-2" value="Menu" style="rounded=0;whiteSpace=wrap;html=1;fontSize=17;strokeWidth=2;" parent="1" vertex="1">
          <mxGeometry x="486" y="220" width="110" height="50" as="geometry" />
        </mxCell>
        <mxCell id="4wg2w4Cgz4jpUNH0m-25-3" value="" style="endArrow=oval;html=1;rounded=0;endFill=1;endSize=8;entryX=0.5;entryY=1;entryDx=0;entryDy=0;" parent="1" target="4wg2w4Cgz4jpUNH0m-25-5" edge="1">
          <mxGeometry width="50" height="50" relative="1" as="geometry">
            <mxPoint x="835" y="220" as="sourcePoint" />
            <mxPoint x="835" y="190" as="targetPoint" />
          </mxGeometry>
        </mxCell>
        <mxCell id="4wg2w4Cgz4jpUNH0m-25-4" value="" style="endArrow=oval;html=1;rounded=0;endFill=0;endSize=8;exitX=0.75;exitY=0;exitDx=0;exitDy=0;entryX=0.5;entryY=1;entryDx=0;entryDy=0;" parent="1" source="4wg2w4Cgz4jpUNH0m-25-8" target="4wg2w4Cgz4jpUNH0m-25-12" edge="1">
          <mxGeometry width="50" height="50" relative="1" as="geometry">
            <mxPoint x="1066.3200000000002" y="220" as="sourcePoint" />
            <mxPoint x="1066.3200000000002" y="170" as="targetPoint" />
          </mxGeometry>
        </mxCell>
        <mxCell id="4wg2w4Cgz4jpUNH0m-25-5" value="CuisineName" style="text;html=1;align=center;verticalAlign=middle;whiteSpace=wrap;rounded=0;fontSize=16;fontStyle=0" parent="1" vertex="1">
          <mxGeometry x="785" y="140" width="100" height="40" as="geometry" />
        </mxCell>
        <mxCell id="4wg2w4Cgz4jpUNH0m-25-6" value="Item" style="text;html=1;align=center;verticalAlign=middle;whiteSpace=wrap;rounded=0;fontSize=16;fontStyle=0" parent="1" vertex="1">
          <mxGeometry x="468" y="140" width="90" height="40" as="geometry" />
        </mxCell>
        <mxCell id="4wg2w4Cgz4jpUNH0m-25-7" value="" style="endArrow=oval;html=1;rounded=0;endFill=1;endSize=8;exitX=0.25;exitY=0;exitDx=0;exitDy=0;entryX=0.5;entryY=1;entryDx=0;entryDy=0;" parent="1" source="4wg2w4Cgz4jpUNH0m-25-2" target="4wg2w4Cgz4jpUNH0m-25-6" edge="1">
          <mxGeometry width="50" height="50" relative="1" as="geometry">
            <mxPoint x="326" y="230" as="sourcePoint" />
            <mxPoint x="326" y="200" as="targetPoint" />
          </mxGeometry>
        </mxCell>
        <mxCell id="4wg2w4Cgz4jpUNH0m-25-8" value="Staff" style="rounded=0;whiteSpace=wrap;html=1;fontSize=17;strokeWidth=2;" parent="1" vertex="1">
          <mxGeometry x="976.32" y="220" width="110" height="50" as="geometry" />
        </mxCell>
        <mxCell id="4wg2w4Cgz4jpUNH0m-25-9" value="StaffId" style="text;html=1;align=center;verticalAlign=middle;whiteSpace=wrap;rounded=0;fontSize=16;fontStyle=0" parent="1" vertex="1">
          <mxGeometry x="948" y="140" width="90" height="40" as="geometry" />
        </mxCell>
        <mxCell id="4wg2w4Cgz4jpUNH0m-25-10" value="" style="endArrow=oval;html=1;rounded=0;endFill=1;endSize=8;entryX=0.5;entryY=1;entryDx=0;entryDy=0;exitX=0.153;exitY=-0.034;exitDx=0;exitDy=0;exitPerimeter=0;" parent="1" source="4wg2w4Cgz4jpUNH0m-25-8" target="4wg2w4Cgz4jpUNH0m-25-9" edge="1">
          <mxGeometry width="50" height="50" relative="1" as="geometry">
            <mxPoint x="817.32" y="230" as="sourcePoint" />
            <mxPoint x="992.3200000000002" y="180" as="targetPoint" />
          </mxGeometry>
        </mxCell>
        <mxCell id="4wg2w4Cgz4jpUNH0m-25-12" value="StaffName" style="text;html=1;align=center;verticalAlign=middle;whiteSpace=wrap;rounded=0;fontSize=16;fontStyle=0" parent="1" vertex="1">
          <mxGeometry x="1014.32" y="140" width="90" height="40" as="geometry" />
        </mxCell>
        <mxCell id="4wg2w4Cgz4jpUNH0m-25-13" value="Price" style="text;html=1;align=center;verticalAlign=middle;whiteSpace=wrap;rounded=0;fontSize=16;fontStyle=0" parent="1" vertex="1">
          <mxGeometry x="788" y="314.62" width="90" height="40" as="geometry" />
        </mxCell>
        <mxCell id="4wg2w4Cgz4jpUNH0m-25-14" value="" style="endArrow=oval;html=1;rounded=0;endFill=0;endSize=8;exitX=0.25;exitY=1;exitDx=0;exitDy=0;" parent="1" source="4wg2w4Cgz4jpUNH0m-25-1" target="4wg2w4Cgz4jpUNH0m-25-13" edge="1">
          <mxGeometry width="50" height="50" relative="1" as="geometry">
            <mxPoint x="1275" y="230" as="sourcePoint" />
            <mxPoint x="1276" y="190" as="targetPoint" />
          </mxGeometry>
        </mxCell>
        <mxCell id="4wg2w4Cgz4jpUNH0m-25-15" value="Member" style="rounded=0;whiteSpace=wrap;html=1;fontSize=17;strokeWidth=2;" parent="1" vertex="1">
          <mxGeometry x="163" y="642" width="110" height="50" as="geometry" />
        </mxCell>
        <mxCell id="4wg2w4Cgz4jpUNH0m-25-16" value="Order" style="rounded=0;whiteSpace=wrap;html=1;fontSize=17;strokeWidth=2;" parent="1" vertex="1">
          <mxGeometry x="509" y="632" width="210" height="50" as="geometry" />
        </mxCell>
        <mxCell id="4wg2w4Cgz4jpUNH0m-25-17" value="StaffCuisine" style="rounded=0;whiteSpace=wrap;html=1;fontSize=17;strokeWidth=2;" parent="1" vertex="1">
          <mxGeometry x="976" y="480" width="110" height="50" as="geometry" />
        </mxCell>
        <mxCell id="4wg2w4Cgz4jpUNH0m-25-18" value="OrderLine" style="rounded=0;whiteSpace=wrap;html=1;fontSize=17;strokeWidth=2;" parent="1" vertex="1">
          <mxGeometry x="570" y="929.5" width="110" height="50" as="geometry" />
        </mxCell>
        <mxCell id="4wg2w4Cgz4jpUNH0m-25-22" value="" style="endArrow=oval;html=1;rounded=0;endFill=0;endSize=8;exitX=0.75;exitY=0;exitDx=0;exitDy=0;entryX=0.5;entryY=1;entryDx=0;entryDy=0;" parent="1" source="4wg2w4Cgz4jpUNH0m-25-2" target="4wg2w4Cgz4jpUNH0m-25-23" edge="1">
          <mxGeometry width="50" height="50" relative="1" as="geometry">
            <mxPoint x="624" y="216" as="sourcePoint" />
            <mxPoint x="576" y="180" as="targetPoint" />
          </mxGeometry>
        </mxCell>
        <mxCell id="4wg2w4Cgz4jpUNH0m-25-23" value="Price" style="text;html=1;align=center;verticalAlign=middle;whiteSpace=wrap;rounded=0;fontSize=16;fontStyle=0" parent="1" vertex="1">
          <mxGeometry x="524" y="140" width="90" height="40" as="geometry" />
        </mxCell>
        <mxCell id="4wg2w4Cgz4jpUNH0m-25-26" value="ListedOn" style="rhombus;whiteSpace=wrap;html=1;fontSize=16;strokeWidth=2;" parent="1" vertex="1">
          <mxGeometry x="671" y="205" width="80" height="80" as="geometry" />
        </mxCell>
        <mxCell id="4wg2w4Cgz4jpUNH0m-25-28" value="" style="endArrow=none;html=1;rounded=0;entryX=1;entryY=0.5;entryDx=0;entryDy=0;exitX=0;exitY=0.5;exitDx=0;exitDy=0;" parent="1" source="4wg2w4Cgz4jpUNH0m-25-1" target="4wg2w4Cgz4jpUNH0m-25-26" edge="1">
          <mxGeometry width="50" height="50" relative="1" as="geometry">
            <mxPoint x="797" y="245" as="sourcePoint" />
            <mxPoint x="619" y="432" as="targetPoint" />
          </mxGeometry>
        </mxCell>
        <mxCell id="4wg2w4Cgz4jpUNH0m-25-29" value="" style="endArrow=none;html=1;rounded=0;entryX=1;entryY=0.5;entryDx=0;entryDy=0;exitX=0;exitY=0.5;exitDx=0;exitDy=0;" parent="1" source="4wg2w4Cgz4jpUNH0m-25-26" target="4wg2w4Cgz4jpUNH0m-25-2" edge="1">
          <mxGeometry width="50" height="50" relative="1" as="geometry">
            <mxPoint x="504" y="252" as="sourcePoint" />
            <mxPoint x="542" y="252" as="targetPoint" />
          </mxGeometry>
        </mxCell>
        <mxCell id="4wg2w4Cgz4jpUNH0m-25-30" value="Cooked" style="rhombus;whiteSpace=wrap;html=1;fontSize=16;strokeWidth=2;" parent="1" vertex="1">
          <mxGeometry x="820" y="372" width="80" height="80" as="geometry" />
        </mxCell>
        <mxCell id="4wg2w4Cgz4jpUNH0m-25-40" value="" style="shape=partialRectangle;whiteSpace=wrap;html=1;bottom=0;right=0;fillColor=none;rotation=270;" parent="1" vertex="1">
          <mxGeometry x="889.57" y="424.68" width="54" height="112.13" as="geometry" />
        </mxCell>
        <mxCell id="4wg2w4Cgz4jpUNH0m-25-44" value="Assigned" style="rhombus;whiteSpace=wrap;html=1;fontSize=16;strokeWidth=2;" parent="1" vertex="1">
          <mxGeometry x="991.32" y="322" width="80" height="80" as="geometry" />
        </mxCell>
        <mxCell id="4wg2w4Cgz4jpUNH0m-25-45" value="" style="endArrow=none;html=1;rounded=0;entryX=0.5;entryY=1;entryDx=0;entryDy=0;exitX=0.5;exitY=0;exitDx=0;exitDy=0;" parent="1" source="4wg2w4Cgz4jpUNH0m-25-44" target="4wg2w4Cgz4jpUNH0m-25-8" edge="1">
          <mxGeometry width="50" height="50" relative="1" as="geometry">
            <mxPoint x="756.3199999999999" y="240" as="sourcePoint" />
            <mxPoint x="802.32" y="240" as="targetPoint" />
          </mxGeometry>
        </mxCell>
        <mxCell id="4wg2w4Cgz4jpUNH0m-25-46" value="" style="endArrow=none;html=1;rounded=0;entryX=0.5;entryY=1;entryDx=0;entryDy=0;" parent="1" source="4wg2w4Cgz4jpUNH0m-25-17" target="4wg2w4Cgz4jpUNH0m-25-44" edge="1">
          <mxGeometry width="50" height="50" relative="1" as="geometry">
            <mxPoint x="913" y="414" as="sourcePoint" />
            <mxPoint x="913" y="324" as="targetPoint" />
          </mxGeometry>
        </mxCell>
        <mxCell id="4wg2w4Cgz4jpUNH0m-25-47" value="CuisineName" style="text;html=1;align=center;verticalAlign=middle;whiteSpace=wrap;rounded=0;fontSize=16;fontStyle=0" parent="1" vertex="1">
          <mxGeometry x="496" y="312" width="90" height="40" as="geometry" />
        </mxCell>
        <mxCell id="4wg2w4Cgz4jpUNH0m-25-48" value="" style="endArrow=oval;html=1;rounded=0;endFill=0;endSize=8;exitX=0.5;exitY=1;exitDx=0;exitDy=0;entryX=0.5;entryY=0;entryDx=0;entryDy=0;" parent="1" source="4wg2w4Cgz4jpUNH0m-25-2" target="4wg2w4Cgz4jpUNH0m-25-47" edge="1">
          <mxGeometry width="50" height="50" relative="1" as="geometry">
            <mxPoint x="564" y="232" as="sourcePoint" />
            <mxPoint x="564" y="192" as="targetPoint" />
          </mxGeometry>
        </mxCell>
        <mxCell id="4wg2w4Cgz4jpUNH0m-25-49" value="Phone" style="text;html=1;align=center;verticalAlign=middle;whiteSpace=wrap;rounded=0;fontSize=16;fontStyle=0" parent="1" vertex="1">
          <mxGeometry x="149" y="562" width="90" height="40" as="geometry" />
        </mxCell>
        <mxCell id="4wg2w4Cgz4jpUNH0m-25-50" value="" style="endArrow=oval;html=1;rounded=0;endFill=1;endSize=8;exitX=0.25;exitY=0;exitDx=0;exitDy=0;entryX=0.5;entryY=1;entryDx=0;entryDy=0;" parent="1" target="4wg2w4Cgz4jpUNH0m-25-49" edge="1">
          <mxGeometry width="50" height="50" relative="1" as="geometry">
            <mxPoint x="194" y="642" as="sourcePoint" />
            <mxPoint x="6" y="622" as="targetPoint" />
          </mxGeometry>
        </mxCell>
        <mxCell id="4wg2w4Cgz4jpUNH0m-25-53" value="FirstName" style="text;html=1;align=center;verticalAlign=middle;whiteSpace=wrap;rounded=0;fontSize=16;fontStyle=0" parent="1" vertex="1">
          <mxGeometry x="33" y="634" width="90" height="40" as="geometry" />
        </mxCell>
        <mxCell id="4wg2w4Cgz4jpUNH0m-25-54" value="" style="endArrow=oval;html=1;rounded=0;endFill=0;endSize=8;exitX=0;exitY=0.5;exitDx=0;exitDy=0;" parent="1" target="4wg2w4Cgz4jpUNH0m-25-53" edge="1">
          <mxGeometry width="50" height="50" relative="1" as="geometry">
            <mxPoint x="163" y="654" as="sourcePoint" />
            <mxPoint x="634" y="599" as="targetPoint" />
          </mxGeometry>
        </mxCell>
        <mxCell id="4wg2w4Cgz4jpUNH0m-25-55" value="LastName" style="text;html=1;align=center;verticalAlign=middle;whiteSpace=wrap;rounded=0;fontSize=16;fontStyle=0" parent="1" vertex="1">
          <mxGeometry x="33" y="658" width="90" height="40" as="geometry" />
        </mxCell>
        <mxCell id="4wg2w4Cgz4jpUNH0m-25-56" value="" style="endArrow=oval;html=1;rounded=0;endFill=0;endSize=8;exitX=0;exitY=0.5;exitDx=0;exitDy=0;" parent="1" target="4wg2w4Cgz4jpUNH0m-25-55" edge="1">
          <mxGeometry width="50" height="50" relative="1" as="geometry">
            <mxPoint x="163" y="678" as="sourcePoint" />
            <mxPoint x="634" y="623" as="targetPoint" />
          </mxGeometry>
        </mxCell>
        <mxCell id="4wg2w4Cgz4jpUNH0m-25-57" value="RegisterAt" style="text;html=1;align=center;verticalAlign=middle;whiteSpace=wrap;rounded=0;fontSize=16;fontStyle=0" parent="1" vertex="1">
          <mxGeometry x="145" y="735" width="90" height="40" as="geometry" />
        </mxCell>
        <mxCell id="4wg2w4Cgz4jpUNH0m-25-58" value="" style="endArrow=oval;html=1;rounded=0;endFill=0;endSize=8;exitX=0.25;exitY=1;exitDx=0;exitDy=0;" parent="1" source="4wg2w4Cgz4jpUNH0m-25-15" target="4wg2w4Cgz4jpUNH0m-25-57" edge="1">
          <mxGeometry width="50" height="50" relative="1" as="geometry">
            <mxPoint x="225" y="738" as="sourcePoint" />
            <mxPoint x="696" y="683" as="targetPoint" />
          </mxGeometry>
        </mxCell>
        <mxCell id="4wg2w4Cgz4jpUNH0m-25-59" value="OrderId" style="text;html=1;align=center;verticalAlign=middle;whiteSpace=wrap;rounded=0;fontSize=16;fontStyle=0" parent="1" vertex="1">
          <mxGeometry x="524" y="552" width="90" height="40" as="geometry" />
        </mxCell>
        <mxCell id="4wg2w4Cgz4jpUNH0m-25-60" value="" style="endArrow=oval;html=1;rounded=0;endFill=1;endSize=8;exitX=0.311;exitY=0.011;exitDx=0;exitDy=0;entryX=0.5;entryY=1;entryDx=0;entryDy=0;exitPerimeter=0;" parent="1" target="4wg2w4Cgz4jpUNH0m-25-59" edge="1">
          <mxGeometry width="50" height="50" relative="1" as="geometry">
            <mxPoint x="569.3100000000001" y="632.5500000000001" as="sourcePoint" />
            <mxPoint x="337" y="612" as="targetPoint" />
          </mxGeometry>
        </mxCell>
        <mxCell id="4wg2w4Cgz4jpUNH0m-25-63" value="" style="endArrow=oval;html=1;rounded=0;endFill=0;endSize=8;exitX=0.768;exitY=0.025;exitDx=0;exitDy=0;entryX=0.5;entryY=1;entryDx=0;entryDy=0;exitPerimeter=0;" parent="1" target="4wg2w4Cgz4jpUNH0m-25-64" edge="1">
          <mxGeometry width="50" height="50" relative="1" as="geometry">
            <mxPoint x="685.2800000000002" y="633.25" as="sourcePoint" />
            <mxPoint x="608" y="592" as="targetPoint" />
          </mxGeometry>
        </mxCell>
        <mxCell id="4wg2w4Cgz4jpUNH0m-25-64" value="TotalPrice" style="text;html=1;align=center;verticalAlign=middle;whiteSpace=wrap;rounded=0;fontSize=16;fontStyle=0" parent="1" vertex="1">
          <mxGeometry x="640" y="552" width="90" height="40" as="geometry" />
        </mxCell>
        <mxCell id="4wg2w4Cgz4jpUNH0m-25-66" value="" style="endArrow=oval;html=1;rounded=0;endFill=0;endSize=8;exitX=1;exitY=0;exitDx=0;exitDy=0;entryX=0.5;entryY=1;entryDx=0;entryDy=0;" parent="1" target="4wg2w4Cgz4jpUNH0m-25-67" edge="1">
          <mxGeometry width="50" height="50" relative="1" as="geometry">
            <mxPoint x="719" y="632" as="sourcePoint" />
            <mxPoint x="645" y="592" as="targetPoint" />
          </mxGeometry>
        </mxCell>
        <mxCell id="4wg2w4Cgz4jpUNH0m-25-67" value="Date" style="text;html=1;align=center;verticalAlign=middle;whiteSpace=wrap;rounded=0;fontSize=16;fontStyle=0" parent="1" vertex="1">
          <mxGeometry x="719" y="592" width="90" height="40" as="geometry" />
        </mxCell>
        <mxCell id="4wg2w4Cgz4jpUNH0m-25-70" value="PaymentMethod" style="text;html=1;align=center;verticalAlign=middle;whiteSpace=wrap;rounded=0;fontSize=16;fontStyle=0" parent="1" vertex="1">
          <mxGeometry x="468" y="725" width="126" height="40" as="geometry" />
        </mxCell>
        <mxCell id="4wg2w4Cgz4jpUNH0m-25-71" value="" style="endArrow=oval;html=1;rounded=0;endFill=0;endSize=8;exitX=0.25;exitY=1;exitDx=0;exitDy=0;" parent="1" target="4wg2w4Cgz4jpUNH0m-25-70" edge="1">
          <mxGeometry width="50" height="50" relative="1" as="geometry">
            <mxPoint x="531" y="682" as="sourcePoint" />
            <mxPoint x="1036" y="673" as="targetPoint" />
          </mxGeometry>
        </mxCell>
        <mxCell id="4wg2w4Cgz4jpUNH0m-25-72" value="CardNo" style="text;html=1;align=center;verticalAlign=middle;whiteSpace=wrap;rounded=0;fontSize=16;fontStyle=0" parent="1" vertex="1">
          <mxGeometry x="393" y="632" width="76" height="40" as="geometry" />
        </mxCell>
        <mxCell id="4wg2w4Cgz4jpUNH0m-25-73" value="" style="endArrow=oval;html=1;rounded=0;endFill=0;endSize=8;exitX=0.001;exitY=0.124;exitDx=0;exitDy=0;entryX=0.5;entryY=0;entryDx=0;entryDy=0;exitPerimeter=0;" parent="1" target="4wg2w4Cgz4jpUNH0m-25-72" edge="1">
          <mxGeometry width="50" height="50" relative="1" as="geometry">
            <mxPoint x="509.2099999999998" y="632.2" as="sourcePoint" />
            <mxPoint x="649" y="714" as="targetPoint" />
          </mxGeometry>
        </mxCell>
        <mxCell id="4wg2w4Cgz4jpUNH0m-25-74" value="CardType" style="text;html=1;align=center;verticalAlign=middle;whiteSpace=wrap;rounded=0;fontSize=16;fontStyle=0" parent="1" vertex="1">
          <mxGeometry x="393" y="682" width="76" height="40" as="geometry" />
        </mxCell>
        <mxCell id="4wg2w4Cgz4jpUNH0m-25-75" value="" style="endArrow=oval;html=1;rounded=0;endFill=0;endSize=8;exitX=-0.005;exitY=0.924;exitDx=0;exitDy=0;entryX=0.5;entryY=0;entryDx=0;entryDy=0;exitPerimeter=0;" parent="1" target="4wg2w4Cgz4jpUNH0m-25-74" edge="1">
          <mxGeometry width="50" height="50" relative="1" as="geometry">
            <mxPoint x="507.95000000000005" y="682.2" as="sourcePoint" />
            <mxPoint x="721" y="724" as="targetPoint" />
          </mxGeometry>
        </mxCell>
        <mxCell id="4wg2w4Cgz4jpUNH0m-25-76" value="Making" style="rhombus;whiteSpace=wrap;html=1;fontSize=16;strokeWidth=2;" parent="1" vertex="1">
          <mxGeometry x="299" y="627.0000000000001" width="80" height="80" as="geometry" />
        </mxCell>
        <mxCell id="4wg2w4Cgz4jpUNH0m-25-77" value="" style="endArrow=none;html=1;rounded=0;entryX=0;entryY=0.5;entryDx=0;entryDy=0;exitX=1;exitY=0.5;exitDx=0;exitDy=0;" parent="1" source="4wg2w4Cgz4jpUNH0m-25-15" target="4wg2w4Cgz4jpUNH0m-25-76" edge="1">
          <mxGeometry width="50" height="50" relative="1" as="geometry">
            <mxPoint x="287" y="250" as="sourcePoint" />
            <mxPoint x="325" y="250" as="targetPoint" />
          </mxGeometry>
        </mxCell>
        <mxCell id="4wg2w4Cgz4jpUNH0m-25-78" value="" style="endArrow=none;html=1;rounded=0;exitX=1;exitY=0.5;exitDx=0;exitDy=0;entryX=0.001;entryY=0.693;entryDx=0;entryDy=0;entryPerimeter=0;" parent="1" source="4wg2w4Cgz4jpUNH0m-25-76" target="4wg2w4Cgz4jpUNH0m-25-16" edge="1">
          <mxGeometry width="50" height="50" relative="1" as="geometry">
            <mxPoint x="444" y="293.5" as="sourcePoint" />
            <mxPoint x="504" y="648" as="targetPoint" />
          </mxGeometry>
        </mxCell>
        <mxCell id="4wg2w4Cgz4jpUNH0m-25-79" value="" style="endArrow=oval;html=1;rounded=0;endFill=0;endSize=8;exitX=0;exitY=0;exitDx=0;exitDy=0;entryX=0.46;entryY=0.923;entryDx=0;entryDy=0;entryPerimeter=0;" parent="1" source="4wg2w4Cgz4jpUNH0m-25-16" target="4wg2w4Cgz4jpUNH0m-25-80" edge="1">
          <mxGeometry width="50" height="50" relative="1" as="geometry">
            <mxPoint x="513" y="632" as="sourcePoint" />
            <mxPoint x="491" y="592" as="targetPoint" />
          </mxGeometry>
        </mxCell>
        <mxCell id="4wg2w4Cgz4jpUNH0m-25-80" value="Phone" style="text;html=1;align=center;verticalAlign=middle;whiteSpace=wrap;rounded=0;fontSize=16;fontStyle=0" parent="1" vertex="1">
          <mxGeometry x="468" y="552" width="90" height="40" as="geometry" />
        </mxCell>
        <mxCell id="4wg2w4Cgz4jpUNH0m-25-81" value="Chosen" style="rhombus;whiteSpace=wrap;html=1;fontSize=16;strokeWidth=2;" parent="1" vertex="1">
          <mxGeometry x="592" y="432" width="80" height="80" as="geometry" />
        </mxCell>
        <mxCell id="4wg2w4Cgz4jpUNH0m-25-83" value="" style="shape=partialRectangle;whiteSpace=wrap;html=1;bottom=0;right=0;fillColor=none;rotation=90;" parent="1" vertex="1">
          <mxGeometry x="530.75" y="329.49" width="169.36" height="34.38" as="geometry" />
        </mxCell>
        <mxCell id="4wg2w4Cgz4jpUNH0m-25-84" value="" style="endArrow=none;html=1;rounded=0;entryX=0.586;entryY=0.016;entryDx=0;entryDy=0;exitX=0.5;exitY=1;exitDx=0;exitDy=0;entryPerimeter=0;" parent="1" source="4wg2w4Cgz4jpUNH0m-25-81" target="4wg2w4Cgz4jpUNH0m-25-16" edge="1">
          <mxGeometry width="50" height="50" relative="1" as="geometry">
            <mxPoint x="456" y="240" as="sourcePoint" />
            <mxPoint x="502" y="240" as="targetPoint" />
          </mxGeometry>
        </mxCell>
        <mxCell id="4wg2w4Cgz4jpUNH0m-25-88" value="" style="endArrow=oval;html=1;rounded=0;endFill=0;endSize=8;exitX=1;exitY=0;exitDx=0;exitDy=0;entryX=0.5;entryY=1;entryDx=0;entryDy=0;" parent="1" target="4wg2w4Cgz4jpUNH0m-25-89" edge="1">
          <mxGeometry width="50" height="50" relative="1" as="geometry">
            <mxPoint x="719" y="682.93" as="sourcePoint" />
            <mxPoint x="645" y="642.93" as="targetPoint" />
          </mxGeometry>
        </mxCell>
        <mxCell id="4wg2w4Cgz4jpUNH0m-25-89" value="Time" style="text;html=1;align=center;verticalAlign=middle;whiteSpace=wrap;rounded=0;fontSize=16;fontStyle=0" parent="1" vertex="1">
          <mxGeometry x="719" y="642.93" width="90" height="40" as="geometry" />
        </mxCell>
        <mxCell id="4wg2w4Cgz4jpUNH0m-25-91" value="Including" style="rhombus;whiteSpace=wrap;html=1;fontSize=16;strokeWidth=2;" parent="1" vertex="1">
          <mxGeometry x="585" y="765" width="80" height="80" as="geometry" />
        </mxCell>
        <mxCell id="4wg2w4Cgz4jpUNH0m-25-94" value="" style="endArrow=none;html=1;rounded=0;exitX=0.551;exitY=1.002;exitDx=0;exitDy=0;exitPerimeter=0;" parent="1" source="4wg2w4Cgz4jpUNH0m-25-16" target="4wg2w4Cgz4jpUNH0m-25-91" edge="1">
          <mxGeometry width="50" height="50" relative="1" as="geometry">
            <mxPoint x="480" y="948" as="sourcePoint" />
            <mxPoint x="574" y="950" as="targetPoint" />
          </mxGeometry>
        </mxCell>
        <mxCell id="4wg2w4Cgz4jpUNH0m-25-95" value="" style="endArrow=none;html=1;rounded=0;entryX=0.5;entryY=0;entryDx=0;entryDy=0;exitX=0.5;exitY=1;exitDx=0;exitDy=0;" parent="1" source="4wg2w4Cgz4jpUNH0m-25-91" target="4wg2w4Cgz4jpUNH0m-25-18" edge="1">
          <mxGeometry width="50" height="50" relative="1" as="geometry">
            <mxPoint x="624" y="864" as="sourcePoint" />
            <mxPoint x="625" y="853" as="targetPoint" />
          </mxGeometry>
        </mxCell>
        <mxCell id="4wg2w4Cgz4jpUNH0m-25-96" value="" style="endArrow=oval;html=1;rounded=0;endFill=0;endSize=8;exitX=0.768;exitY=0.025;exitDx=0;exitDy=0;entryX=0.5;entryY=1;entryDx=0;entryDy=0;exitPerimeter=0;" parent="1" target="4wg2w4Cgz4jpUNH0m-25-97" edge="1">
          <mxGeometry width="50" height="50" relative="1" as="geometry">
            <mxPoint x="660.6400000000002" y="929.5" as="sourcePoint" />
            <mxPoint x="583.36" y="888.25" as="targetPoint" />
          </mxGeometry>
        </mxCell>
        <mxCell id="4wg2w4Cgz4jpUNH0m-25-97" value="LineNo" style="text;html=1;align=center;verticalAlign=middle;whiteSpace=wrap;rounded=0;fontSize=16;fontStyle=0" parent="1" vertex="1">
          <mxGeometry x="615.36" y="848.25" width="90" height="40" as="geometry" />
        </mxCell>
        <mxCell id="4wg2w4Cgz4jpUNH0m-25-103" value="" style="endArrow=oval;html=1;rounded=0;endFill=0;endSize=8;exitX=1;exitY=0;exitDx=0;exitDy=0;entryX=0.5;entryY=1;entryDx=0;entryDy=0;" parent="1" target="4wg2w4Cgz4jpUNH0m-25-104" edge="1">
          <mxGeometry width="50" height="50" relative="1" as="geometry">
            <mxPoint x="680" y="929.24" as="sourcePoint" />
            <mxPoint x="606" y="889.24" as="targetPoint" />
          </mxGeometry>
        </mxCell>
        <mxCell id="4wg2w4Cgz4jpUNH0m-25-104" value="Item" style="text;html=1;align=center;verticalAlign=middle;whiteSpace=wrap;rounded=0;fontSize=16;fontStyle=0" parent="1" vertex="1">
          <mxGeometry x="680" y="889.24" width="90" height="40" as="geometry" />
        </mxCell>
        <mxCell id="4wg2w4Cgz4jpUNH0m-25-107" value="" style="endArrow=oval;html=1;rounded=0;endFill=0;endSize=8;exitX=1;exitY=0;exitDx=0;exitDy=0;entryX=0.5;entryY=1;entryDx=0;entryDy=0;" parent="1" target="4wg2w4Cgz4jpUNH0m-25-108" edge="1">
          <mxGeometry width="50" height="50" relative="1" as="geometry">
            <mxPoint x="680" y="969.5" as="sourcePoint" />
            <mxPoint x="606" y="929.5" as="targetPoint" />
          </mxGeometry>
        </mxCell>
        <mxCell id="4wg2w4Cgz4jpUNH0m-25-108" value="Quantity&amp;gt;1" style="text;html=1;align=center;verticalAlign=middle;whiteSpace=wrap;rounded=0;fontSize=16;fontStyle=0" parent="1" vertex="1">
          <mxGeometry x="680" y="929.5" width="90" height="40" as="geometry" />
        </mxCell>
        <mxCell id="4wg2w4Cgz4jpUNH0m-25-113" value="PreparedBy" style="rhombus;whiteSpace=wrap;html=1;fontSize=16;strokeWidth=2;" parent="1" vertex="1">
          <mxGeometry x="984.7900000000001" y="600.93" width="91.07" height="91.07" as="geometry" />
        </mxCell>
        <mxCell id="4wg2w4Cgz4jpUNH0m-25-114" value="" style="endArrow=none;html=1;rounded=0;exitX=0.007;exitY=0.072;exitDx=0;exitDy=0;entryX=0;entryY=0.5;entryDx=0;entryDy=0;exitPerimeter=0;" parent="1" source="4wg2w4Cgz4jpUNH0m-25-89" target="4wg2w4Cgz4jpUNH0m-25-113" edge="1">
          <mxGeometry width="50" height="50" relative="1" as="geometry">
            <mxPoint x="408" y="660" as="sourcePoint" />
            <mxPoint x="538" y="660" as="targetPoint" />
          </mxGeometry>
        </mxCell>
        <mxCell id="4wg2w4Cgz4jpUNH0m-25-115" value="" style="endArrow=none;html=1;rounded=0;" parent="1" source="4wg2w4Cgz4jpUNH0m-25-17" target="4wg2w4Cgz4jpUNH0m-25-113" edge="1">
          <mxGeometry width="50" height="50" relative="1" as="geometry">
            <mxPoint x="976" y="637" as="sourcePoint" />
            <mxPoint x="1086" y="636" as="targetPoint" />
          </mxGeometry>
        </mxCell>
        <mxCell id="4wg2w4Cgz4jpUNH0m-25-117" value="StaffName" style="text;html=1;align=center;verticalAlign=middle;whiteSpace=wrap;rounded=0;fontSize=16;fontStyle=0" parent="1" vertex="1">
          <mxGeometry x="630" y="725.93" width="126" height="40" as="geometry" />
        </mxCell>
        <mxCell id="4wg2w4Cgz4jpUNH0m-25-118" value="" style="endArrow=oval;html=1;rounded=0;endFill=0;endSize=8;exitX=0.25;exitY=1;exitDx=0;exitDy=0;" parent="1" target="4wg2w4Cgz4jpUNH0m-25-117" edge="1">
          <mxGeometry width="50" height="50" relative="1" as="geometry">
            <mxPoint x="693" y="682.93" as="sourcePoint" />
            <mxPoint x="1198" y="673.93" as="targetPoint" />
          </mxGeometry>
        </mxCell>
        <mxCell id="4wg2w4Cgz4jpUNH0m-25-119" value="StaffName" style="text;html=1;align=center;verticalAlign=middle;whiteSpace=wrap;rounded=0;fontSize=16;fontStyle=0" parent="1" vertex="1">
          <mxGeometry x="601.36" y="1022.5" width="126" height="40" as="geometry" />
        </mxCell>
        <mxCell id="4wg2w4Cgz4jpUNH0m-25-120" value="" style="endArrow=oval;html=1;rounded=0;endFill=0;endSize=8;exitX=0.25;exitY=1;exitDx=0;exitDy=0;" parent="1" target="4wg2w4Cgz4jpUNH0m-25-119" edge="1">
          <mxGeometry width="50" height="50" relative="1" as="geometry">
            <mxPoint x="664.36" y="979.5" as="sourcePoint" />
            <mxPoint x="1169.36" y="970.5" as="targetPoint" />
          </mxGeometry>
        </mxCell>
        <mxCell id="4wg2w4Cgz4jpUNH0m-25-121" value="" style="endArrow=oval;html=1;rounded=0;endFill=0;endSize=8;exitX=0.768;exitY=0.025;exitDx=0;exitDy=0;entryX=0.5;entryY=1;entryDx=0;entryDy=0;exitPerimeter=0;" parent="1" target="4wg2w4Cgz4jpUNH0m-25-122" edge="1">
          <mxGeometry width="50" height="50" relative="1" as="geometry">
            <mxPoint x="585.2800000000002" y="929.24" as="sourcePoint" />
            <mxPoint x="508" y="887.99" as="targetPoint" />
          </mxGeometry>
        </mxCell>
        <mxCell id="4wg2w4Cgz4jpUNH0m-25-122" value="OrderId" style="text;html=1;align=center;verticalAlign=middle;whiteSpace=wrap;rounded=0;fontSize=16;fontStyle=0" parent="1" vertex="1">
          <mxGeometry x="540" y="847.99" width="90" height="40" as="geometry" />
        </mxCell>
        <mxCell id="4wg2w4Cgz4jpUNH0m-25-125" value="" style="endArrow=oval;html=1;rounded=0;endFill=1;endSize=8;startArrow=oval;startFill=1;startSize=8;" parent="1" edge="1">
          <mxGeometry width="50" height="50" relative="1" as="geometry">
            <mxPoint x="660" y="907" as="sourcePoint" />
            <mxPoint x="585" y="907" as="targetPoint" />
          </mxGeometry>
        </mxCell>
        <mxCell id="4wg2w4Cgz4jpUNH0m-25-130" value="" style="endArrow=none;html=1;rounded=0;entryX=0.5;entryY=1;entryDx=0;entryDy=0;exitX=0.5;exitY=0;exitDx=0;exitDy=0;" parent="1" source="4wg2w4Cgz4jpUNH0m-25-30" target="4wg2w4Cgz4jpUNH0m-25-1" edge="1">
          <mxGeometry width="50" height="50" relative="1" as="geometry">
            <mxPoint x="735" y="240" as="sourcePoint" />
            <mxPoint x="641" y="240" as="targetPoint" />
          </mxGeometry>
        </mxCell>
        <mxCell id="4wg2w4Cgz4jpUNH0m-25-131" value="" style="endArrow=oval;html=1;rounded=0;endFill=0;endSize=8;exitX=1;exitY=0;exitDx=0;exitDy=0;entryX=0.5;entryY=1;entryDx=0;entryDy=0;" parent="1" target="4wg2w4Cgz4jpUNH0m-25-132" edge="1">
          <mxGeometry width="50" height="50" relative="1" as="geometry">
            <mxPoint x="1086.32" y="491.69" as="sourcePoint" />
            <mxPoint x="1012.3199999999999" y="451.69" as="targetPoint" />
          </mxGeometry>
        </mxCell>
        <mxCell id="4wg2w4Cgz4jpUNH0m-25-132" value="StaffId" style="text;html=1;align=center;verticalAlign=middle;whiteSpace=wrap;rounded=0;fontSize=16;fontStyle=0" parent="1" vertex="1">
          <mxGeometry x="1110.32" y="451.69" width="90" height="40" as="geometry" />
        </mxCell>
        <mxCell id="4wg2w4Cgz4jpUNH0m-25-133" value="" style="endArrow=oval;html=1;rounded=0;endFill=0;endSize=8;exitX=1;exitY=0;exitDx=0;exitDy=0;entryX=0.5;entryY=1;entryDx=0;entryDy=0;" parent="1" target="4wg2w4Cgz4jpUNH0m-25-134" edge="1">
          <mxGeometry width="50" height="50" relative="1" as="geometry">
            <mxPoint x="1086.32" y="529.73" as="sourcePoint" />
            <mxPoint x="1012.32" y="489.73" as="targetPoint" />
          </mxGeometry>
        </mxCell>
        <mxCell id="4wg2w4Cgz4jpUNH0m-25-134" value="CuisionName" style="text;html=1;align=center;verticalAlign=middle;whiteSpace=wrap;rounded=0;fontSize=16;fontStyle=0" parent="1" vertex="1">
          <mxGeometry x="1111.32" y="489.73" width="90" height="40" as="geometry" />
        </mxCell>
        <mxCell id="4wg2w4Cgz4jpUNH0m-25-135" value="" style="endArrow=oval;html=1;rounded=0;endFill=1;endSize=8;startArrow=oval;startFill=1;startSize=8;entryX=0;entryY=0;entryDx=0;entryDy=0;exitX=0;exitY=1;exitDx=0;exitDy=0;" parent="1" edge="1">
          <mxGeometry width="50" height="50" relative="1" as="geometry">
            <mxPoint x="1105.32" y="529.73" as="sourcePoint" />
            <mxPoint x="1105.32" y="489.73" as="targetPoint" />
          </mxGeometry>
        </mxCell>
        <mxCell id="4wg2w4Cgz4jpUNH0m-25-136" value="&lt;font&gt;(1,1)&lt;/font&gt;" style="text;html=1;align=center;verticalAlign=middle;whiteSpace=wrap;rounded=0;fontStyle=1;fontSize=13;" parent="1" vertex="1">
          <mxGeometry x="655" y="894.24" width="60" height="30" as="geometry" />
        </mxCell>
        <mxCell id="4wg2w4Cgz4jpUNH0m-25-138" value="(1,n)" style="text;html=1;align=center;verticalAlign=middle;whiteSpace=wrap;rounded=0;fontStyle=1;fontSize=13;" parent="1" vertex="1">
          <mxGeometry x="620" y="682.9300000000001" width="60" height="30" as="geometry" />
        </mxCell>
        <mxCell id="4wg2w4Cgz4jpUNH0m-25-139" value="&lt;font&gt;(1,1)&lt;/font&gt;" style="text;html=1;align=center;verticalAlign=middle;whiteSpace=wrap;rounded=0;fontStyle=1;fontSize=13;" parent="1" vertex="1">
          <mxGeometry x="592" y="216" width="60" height="30" as="geometry" />
        </mxCell>
        <mxCell id="4wg2w4Cgz4jpUNH0m-25-140" value="(0,n)" style="text;html=1;align=center;verticalAlign=middle;whiteSpace=wrap;rounded=0;fontStyle=1;fontSize=13;" parent="1" vertex="1">
          <mxGeometry x="751" y="216" width="60" height="30" as="geometry" />
        </mxCell>
        <mxCell id="p2pCYBXfIURPPyphPtBF-1" value="(0,n)" style="text;html=1;align=center;verticalAlign=middle;whiteSpace=wrap;rounded=0;fontStyle=1;fontSize=13;" vertex="1" parent="1">
          <mxGeometry x="261" y="632" width="60" height="30" as="geometry" />
        </mxCell>
        <mxCell id="p2pCYBXfIURPPyphPtBF-2" value="(0,1)" style="text;html=1;align=center;verticalAlign=middle;whiteSpace=wrap;rounded=0;fontStyle=1;fontSize=13;" vertex="1" parent="1">
          <mxGeometry x="352" y="628" width="60" height="30" as="geometry" />
        </mxCell>
        <mxCell id="p2pCYBXfIURPPyphPtBF-3" value="&lt;font&gt;(1,1)&lt;/font&gt;" style="text;html=1;align=center;verticalAlign=middle;whiteSpace=wrap;rounded=0;fontStyle=1;fontSize=13;" vertex="1" parent="1">
          <mxGeometry x="580" y="600.9300000000001" width="60" height="30" as="geometry" />
        </mxCell>
        <mxCell id="p2pCYBXfIURPPyphPtBF-5" value="(0,n)" style="text;html=1;align=center;verticalAlign=middle;whiteSpace=wrap;rounded=0;fontStyle=1;fontSize=13;" vertex="1" parent="1">
          <mxGeometry x="570" y="270" width="60" height="30" as="geometry" />
        </mxCell>
        <mxCell id="p2pCYBXfIURPPyphPtBF-6" value="(0,n)" style="text;html=1;align=center;verticalAlign=middle;whiteSpace=wrap;rounded=0;fontStyle=1;fontSize=13;" vertex="1" parent="1">
          <mxGeometry x="855" y="270" width="60" height="30" as="geometry" />
        </mxCell>
        <mxCell id="p2pCYBXfIURPPyphPtBF-7" value="(1,n)" style="text;html=1;align=center;verticalAlign=middle;whiteSpace=wrap;rounded=0;fontStyle=1;fontSize=13;" vertex="1" parent="1">
          <mxGeometry x="916.3199999999999" y="480" width="60" height="30" as="geometry" />
        </mxCell>
        <mxCell id="p2pCYBXfIURPPyphPtBF-8" value="&lt;font&gt;(1,1)&lt;/font&gt;" style="text;html=1;align=center;verticalAlign=middle;whiteSpace=wrap;rounded=0;fontStyle=1;fontSize=13;" vertex="1" parent="1">
          <mxGeometry x="770" y="644" width="60" height="30" as="geometry" />
        </mxCell>
        <mxCell id="p2pCYBXfIURPPyphPtBF-9" value="(1,n)" style="text;html=1;align=center;verticalAlign=middle;whiteSpace=wrap;rounded=0;fontStyle=1;fontSize=13;" vertex="1" parent="1">
          <mxGeometry x="976" y="532" width="60" height="30" as="geometry" />
        </mxCell>
        <mxCell id="p2pCYBXfIURPPyphPtBF-11" value="(0,n)" style="text;html=1;align=center;verticalAlign=middle;whiteSpace=wrap;rounded=0;fontStyle=1;fontSize=13;" vertex="1" parent="1">
          <mxGeometry x="1026" y="270" width="60" height="30" as="geometry" />
        </mxCell>
        <mxCell id="p2pCYBXfIURPPyphPtBF-13" value="(1,n)" style="text;html=1;align=center;verticalAlign=middle;whiteSpace=wrap;rounded=0;fontStyle=1;fontSize=13;" vertex="1" parent="1">
          <mxGeometry x="1029.32" y="450" width="60" height="30" as="geometry" />
        </mxCell>
      </root>
    </mxGraphModel>
  </diagram>
</mxfile>
